<?xml version="1.0" encoding="UTF-8" standalone="no"?>
<!-- Created with Inkscape (http://www.inkscape.org/) -->

<svg
   width="50.386471mm"
   height="19.522003mm"
   viewBox="0 0 50.386471 19.522003"
   version="1.1"
   id="svg5"
   inkscape:version="1.2.2 (b0a8486541, 2022-12-01)"
   sodipodi:docname="pour_les_cours_ou_les_renseignements.svg"
   xmlns:inkscape="http://www.inkscape.org/namespaces/inkscape"
   xmlns:sodipodi="http://sodipodi.sourceforge.net/DTD/sodipodi-0.dtd"
   xmlns="http://www.w3.org/2000/svg"
   xmlns:svg="http://www.w3.org/2000/svg">
  <sodipodi:namedview
     id="namedview7"
     pagecolor="#ffffff"
     bordercolor="#000000"
     borderopacity="0.25"
     inkscape:showpageshadow="2"
     inkscape:pageopacity="0.0"
     inkscape:pagecheckerboard="0"
     inkscape:deskcolor="#d1d1d1"
     inkscape:document-units="mm"
     showgrid="false"
     inkscape:zoom="4.3339058"
     inkscape:cx="83.873535"
     inkscape:cy="18.920577"
     inkscape:window-width="1920"
     inkscape:window-height="1018"
     inkscape:window-x="0"
     inkscape:window-y="0"
     inkscape:window-maximized="1"
     inkscape:current-layer="layer1" />
  <defs
     id="defs2" />
  <g
     inkscape:label="Layer 1"
     inkscape:groupmode="layer"
     id="layer1"
     transform="translate(-84.970505,-109.8495)">
    <g
       aria-label="Pour les cours ou  les renseignements"
       id="text236"
       style="font-size:5.64444px;font-family:C059;-inkscape-font-specification:C059;fill-opacity:0.990256;stroke-width:0.179355;stroke-linecap:square;stroke-linejoin:round"
       transform="matrix(1.115107,0,0,1.115107,3.0671504,-7.2706381)">
      <path
         d="m 86.771089,105.73034 q 0,0.36689 -0.09031,0.64347 -0.08467,0.27658 -0.197555,0.49107 -0.107245,0.20884 -0.214489,0.37817 -0.1016,0.16369 -0.135467,0.31609 -0.02822,0.1016 -0.124177,0.1016 -0.01129,0 -0.01693,0 -0.0056,-0.006 -0.01693,-0.006 0.03951,0.096 0.118533,0.22013 0.07902,0.11853 0.158045,0.24271 0.07902,0.12418 0.135466,0.24271 0.06209,0.11854 0.06209,0.2032 0,0.0452 -0.06209,0.0847 -0.05644,0.0451 -0.1016,0.0451 -0.02258,0 -0.03387,-0.0282 -0.05644,-0.2032 -0.208845,-0.43462 -0.1524,-0.23142 -0.316088,-0.51929 -0.158045,-0.28787 -0.282222,-0.64911 -0.124178,-0.36124 -0.124178,-0.81844 0,-0.19191 0.01693,-0.32174 0.02258,-0.13546 0.118533,-0.13546 0.05644,0 0.07902,0.0339 0.02258,0.0339 0.02258,0.0734 0,0.51365 0.09596,0.90311 0.09595,0.38947 0.214489,0.60396 l 0.09595,-0.14676 q 0.146756,-0.22578 0.254,-0.39511 0.107244,-0.17498 0.174978,-0.33867 0.06773,-0.16933 0.09596,-0.34431 0.03387,-0.17497 0.03387,-0.4064 0,-0.0621 -0.01693,-0.13546 -0.01129,-0.0734 -0.04515,-0.12982 -0.02822,-0.0621 -0.07338,-0.1016 -0.04515,-0.0395 -0.112889,-0.0395 -0.09031,0 -0.276577,0.0508 -0.180622,0.0508 -0.372533,0.13547 -0.191911,0.0847 -0.349956,0.19191 -0.158044,0.1016 -0.191911,0.20885 -0.0056,0.0113 -0.01693,0.0282 -0.01129,0.0169 -0.02258,0.0169 -0.03951,0 -0.08467,-0.0621 -0.04516,-0.0621 -0.04516,-0.10724 0,-0.1016 0.09031,-0.19756 0.09031,-0.0959 0.225778,-0.17497 0.141111,-0.079 0.310444,-0.14112 0.169333,-0.0677 0.327378,-0.10724 0.158044,-0.0452 0.282222,-0.0677 0.129822,-0.0282 0.186266,-0.0282 0.09031,0 0.169333,0.0508 0.08467,0.0508 0.141111,0.13547 0.05644,0.0847 0.09031,0.19756 0.03387,0.11289 0.03387,0.23706 z"
         style="font-family:'Reenie Beanie';-inkscape-font-specification:'Reenie Beanie';stroke-width:0.179355"
         id="path4850" />
      <path
         d="m 88.249938,107.18661 q 0,0.12418 -0.03387,0.23706 -0.03387,0.11289 -0.09031,0.19756 -0.05644,0.0847 -0.135467,0.13547 -0.07338,0.0452 -0.163688,0.0452 -0.158045,0 -0.248356,-0.0903 -0.09031,-0.0903 -0.141111,-0.20884 -0.04516,-0.11854 -0.06209,-0.23707 -0.01129,-0.12418 -0.01129,-0.18627 0,-0.1016 0.02822,-0.22577 0.03387,-0.12983 0.08467,-0.23707 0.05645,-0.10724 0.124178,-0.18062 0.06773,-0.0734 0.141111,-0.0734 0.01693,0 0.0508,0.0113 0.03951,0.0113 0.07902,0.0339 0.03951,0.0226 0.06773,0.0564 0.03387,0.0339 0.04516,0.079 0.06209,0.006 0.124178,0.0452 0.06209,0.0395 0.06773,0.0621 0.04516,0.14675 0.05644,0.29351 0.01693,0.14675 0.01693,0.24271 z m -0.254,-0.1016 q 0,-0.0847 -0.01693,-0.17498 -0.01693,-0.096 -0.06773,-0.19191 -0.01129,0.006 -0.02822,0.006 -0.02258,0 -0.03951,-0.006 -0.01129,-0.006 -0.02258,-0.006 -0.06773,0 -0.107244,0.0395 -0.03951,0.0339 -0.06209,0.0959 -0.01693,0.0565 -0.02258,0.12418 -0.0056,0.0677 -0.0056,0.12982 0,0.0621 0.0056,0.14111 0.0056,0.0734 0.02258,0.14111 0.02258,0.0677 0.05644,0.11854 0.03387,0.0451 0.09031,0.0451 0.05644,0 0.09596,-0.0564 0.03951,-0.0621 0.06209,-0.14111 0.02258,-0.079 0.02822,-0.1524 0.01129,-0.079 0.01129,-0.11289 z"
         style="font-family:'Reenie Beanie';-inkscape-font-specification:'Reenie Beanie';stroke-width:0.179355"
         id="path4852" />
      <path
         d="m 90.677051,107.46883 q 0,0.0508 -0.06773,0.10724 -0.06773,0.0564 -0.158044,0.10725 -0.09031,0.0452 -0.186267,0.079 -0.09031,0.0339 -0.135466,0.0339 -0.0508,0 -0.112889,-0.0282 -0.05644,-0.0282 -0.112889,-0.0677 -0.0508,-0.0395 -0.09031,-0.0734 -0.03951,-0.0339 -0.0508,-0.0451 -0.01693,0.0169 -0.0508,0.0677 -0.03387,0.0508 -0.08467,0.11289 -0.04516,0.0565 -0.1016,0.1016 -0.0508,0.0452 -0.107245,0.0452 -0.146755,0 -0.253999,-0.15805 -0.107245,-0.15804 -0.180623,-0.36124 -0.06773,-0.2032 -0.107244,-0.38947 -0.03387,-0.19191 -0.03387,-0.25964 0,-0.0395 0.03951,-0.0621 0.04515,-0.0282 0.06773,-0.0282 0.07902,0 0.107244,0.0564 0.02822,0.0508 0.02822,0.11289 0,0.0508 0.02822,0.18062 0.03387,0.12982 0.07902,0.26529 0.04515,0.13547 0.09595,0.24271 0.0508,0.1016 0.09031,0.1016 0.07338,0 0.124178,-0.0903 0.05644,-0.096 0.09031,-0.21449 0.03387,-0.12418 0.0508,-0.23142 0.01693,-0.11289 0.01693,-0.14676 0,-0.006 0,-0.0339 0.0056,-0.0339 0.01129,-0.0677 0.0056,-0.0339 0.0056,-0.0621 0.0056,-0.0282 0.0056,-0.0395 0,-0.0395 -0.01693,-0.0508 -0.01693,-0.0169 -0.01693,-0.0621 0,-0.0339 0.03387,-0.0621 0.03387,-0.0339 0.146756,-0.0339 0.04515,0 0.06773,0.0282 0.02822,0.0226 0.03951,0.0565 0.01129,0.0339 0.01129,0.0677 0.0056,0.0282 0.0056,0.0395 0,0.006 -0.0056,0.079 -0.0056,0.0734 -0.01129,0.16369 0,0.0847 -0.0056,0.16369 -0.0056,0.079 -0.0056,0.096 0,0.0169 0.01693,0.0677 0.01693,0.0508 0.03951,0.10724 0.02822,0.0508 0.06209,0.096 0.03387,0.0395 0.07338,0.0395 0.06773,0 0.124178,-0.0169 0.06209,-0.0226 0.112888,-0.0452 0.05644,-0.0282 0.1016,-0.0451 0.04516,-0.0226 0.08467,-0.0226 0.0508,0 0.09031,0.0226 0.04516,0.0226 0.04516,0.0564 z"
         style="font-family:'Reenie Beanie';-inkscape-font-specification:'Reenie Beanie';stroke-width:0.179355"
         id="path4854" />
      <path
         d="m 92.234913,106.68425 q 0,0.0395 -0.03387,0.0677 -0.03387,0.0226 -0.07902,0.0395 -0.04515,0.0169 -0.09031,0.0282 -0.04515,0.006 -0.07338,0.006 -0.08467,0 -0.112889,-0.0113 -0.02822,-0.0113 -0.04516,-0.0113 -0.141111,0 -0.225777,0.0226 -0.08467,0.0226 -0.135467,0.0734 -0.04516,0.0508 -0.06209,0.12982 -0.01129,0.0734 -0.01129,0.18063 0,0.18062 0.01129,0.28786 0.01693,0.10725 0.02822,0.17498 0.01693,0.0677 0.02822,0.10724 0.01693,0.0339 0.01693,0.0677 0,0.0452 -0.0508,0.096 -0.04515,0.0508 -0.08467,0.0508 -0.06773,0 -0.124177,-0.11853 -0.0508,-0.12418 -0.09031,-0.28787 -0.03387,-0.16933 -0.05644,-0.33302 -0.02258,-0.16369 -0.02258,-0.24835 0,-0.096 0.01693,-0.18063 0.01693,-0.0903 0.04516,-0.1524 0.02822,-0.0677 0.06209,-0.10724 0.03387,-0.0395 0.06773,-0.0395 0.02822,0 0.04516,0.0226 0.01693,0.0169 0.02822,0.0452 0.01129,0.0226 0.02258,0.0452 0.01693,0.0169 0.03951,0.0169 0.0508,0 0.163689,-0.0508 0.112889,-0.0508 0.276577,-0.0508 0.1524,0 0.225778,0.0113 0.07902,0.006 0.1524,0.0339 0.01693,0.006 0.03951,0.0282 0.02822,0.0169 0.02822,0.0564 z"
         style="font-family:'Reenie Beanie';-inkscape-font-specification:'Reenie Beanie';stroke-width:0.179355"
         id="path4856" />
      <path
         d="m 95.773974,108.24212 q 0,0.0452 -0.03387,0.0677 -0.03387,0.0226 -0.07902,0.0226 -0.0508,0 -0.107245,-0.096 -0.0508,-0.096 -0.1016,-0.24271 -0.0508,-0.14675 -0.09596,-0.31609 -0.04516,-0.17497 -0.07902,-0.32173 -0.03387,-0.1524 -0.05644,-0.254 -0.01693,-0.1016 -0.01693,-0.11289 0,-0.0226 -0.02258,-0.11853 -0.01693,-0.096 -0.0508,-0.29916 -0.02822,-0.2032 -0.06773,-0.52493 -0.03387,-0.32738 -0.07338,-0.80715 0,-0.0508 0.01693,-0.12983 0.01693,-0.079 0.07902,-0.079 0.07902,0 0.118533,0.10725 0.04516,0.10724 0.06773,0.26529 0.02822,0.15804 0.03951,0.33302 0.01129,0.16933 0.02822,0.29915 0.02258,0.18062 0.03951,0.32738 0.02258,0.14676 0.03951,0.29351 0.02258,0.14111 0.0508,0.29916 0.03387,0.15804 0.07902,0.34995 l 0.225777,0.93698 z"
         style="font-family:'Reenie Beanie';-inkscape-font-specification:'Reenie Beanie';stroke-width:0.179355"
         id="path4858" />
      <path
         d="m 97.783398,107.81314 q 0.0056,0.0113 0.0056,0.0339 0,0.0339 -0.0508,0.1016 -0.01693,0.0226 -0.07338,0.0734 -0.05644,0.0508 -0.1524,0.1016 -0.09596,0.0508 -0.237066,0.0903 -0.135467,0.0395 -0.321733,0.0395 -0.129823,0 -0.254,-0.0564 -0.124178,-0.0621 -0.220133,-0.17497 -0.09596,-0.11854 -0.158045,-0.28787 -0.06209,-0.17498 -0.06209,-0.4064 0,-0.22013 0.05644,-0.41204 0.05644,-0.19192 0.141111,-0.33867 0.09031,-0.14676 0.197555,-0.23142 0.107245,-0.0847 0.208844,-0.0847 0.09031,0 0.180623,0.0395 0.09596,0.0339 0.169333,0.0903 0.07902,0.0565 0.124177,0.12982 0.04516,0.0677 0.04516,0.14112 0,0.0847 -0.07902,0.17497 -0.07338,0.0903 -0.180622,0.16934 -0.107245,0.0734 -0.214489,0.12417 -0.107244,0.0452 -0.169333,0.0452 -0.03387,0 -0.06209,-0.0282 -0.02258,-0.0339 -0.02258,-0.079 0,-0.079 0.06773,-0.12418 0.07338,-0.0452 0.158045,-0.079 0.08467,-0.0395 0.1524,-0.0903 0.07338,-0.0508 0.07338,-0.14111 0,-0.0113 -0.02822,-0.0564 -0.02822,-0.0452 -0.1524,-0.0452 -0.05644,0 -0.129822,0.0677 -0.07338,0.0621 -0.141111,0.17497 -0.06773,0.10725 -0.112889,0.25965 -0.04516,0.14675 -0.04516,0.32173 0,0.14676 0.0508,0.26529 0.05644,0.11853 0.141111,0.2032 0.08467,0.079 0.197555,0.12418 0.112889,0.0451 0.231422,0.0451 0.08467,0 0.180622,-0.0339 0.1016,-0.0395 0.186267,-0.079 0.09031,-0.0452 0.1524,-0.079 0.06773,-0.0395 0.08467,-0.0395 0.01693,0 0.03387,0.0169 0.02258,0.0169 0.02822,0.0339 z"
         style="font-family:'Reenie Beanie';-inkscape-font-specification:'Reenie Beanie';stroke-width:0.179355"
         id="path4860" />
      <path
         d="m 99.454157,107.66074 q 0,0.096 -0.06773,0.16933 -0.06209,0.0677 -0.163689,0.11854 -0.09596,0.0451 -0.214488,0.0734 -0.118534,0.0282 -0.225778,0.0451 -0.107244,0.0113 -0.191911,0.0169 -0.07902,0 -0.1016,0 -0.124178,0 -0.191911,-0.0395 -0.06773,-0.0395 -0.06773,-0.14111 0,-0.0339 0.0056,-0.0564 0.0056,-0.0282 0.04516,-0.0282 0.01693,0 0.05644,0.0113 0.03951,0.006 0.06209,0.006 0.02258,0 0.141111,-0.006 0.124178,-0.0113 0.259644,-0.0339 0.141111,-0.0226 0.248356,-0.0621 0.112888,-0.0452 0.112888,-0.11289 0,-0.0113 -0.118533,-0.0677 -0.112889,-0.0621 -0.344311,-0.2032 -0.180622,-0.11289 -0.253999,-0.22578 -0.07338,-0.11853 -0.07338,-0.31609 0,-0.12418 0.0508,-0.2032 0.05644,-0.079 0.146755,-0.12418 0.09596,-0.0451 0.214489,-0.0621 0.124178,-0.0226 0.259644,-0.0226 0.01129,0 0.06773,0.0113 0.06209,0.0113 0.129823,0.0395 0.06773,0.0226 0.118533,0.0621 0.05644,0.0339 0.05644,0.079 0,0.0113 -0.02258,0.0339 -0.01693,0.0226 -0.06209,0.0847 -0.01693,-0.006 -0.06209,-0.0169 -0.03951,-0.0113 -0.09596,-0.0226 -0.0508,-0.0169 -0.107244,-0.0226 -0.05644,-0.0113 -0.09031,-0.0113 -0.146756,0 -0.237067,0.0564 -0.09031,0.0508 -0.09031,0.2032 0,0.0734 0.05644,0.13546 0.06209,0.0621 0.1524,0.11854 0.09031,0.0508 0.191911,0.10724 0.107244,0.0508 0.197555,0.11289 0.09031,0.0621 0.146756,0.13547 0.06209,0.0677 0.06209,0.15804 z"
         style="font-family:'Reenie Beanie';-inkscape-font-specification:'Reenie Beanie';stroke-width:0.179355"
         id="path4862" />
      <path
         d="m 103.90198,107.37852 q 0,0.0564 -0.0169,0.11853 -0.0169,0.0564 -0.0339,0.096 -0.0113,0.0169 -0.10725,0.11853 -0.0903,0.096 -0.23142,0.2032 -0.13546,0.10725 -0.31044,0.19756 -0.16934,0.0847 -0.32738,0.0847 -0.096,0 -0.19756,-0.0339 -0.096,-0.0339 -0.18062,-0.10725 -0.0847,-0.079 -0.14111,-0.19191 -0.0508,-0.11289 -0.0508,-0.27658 0,-0.27093 0.0903,-0.49106 0.0903,-0.22014 0.18062,-0.34996 0.0395,-0.0621 0.1016,-0.12418 0.0677,-0.0677 0.12983,-0.11853 0.0621,-0.0564 0.11289,-0.0903 0.0564,-0.0339 0.079,-0.0339 0.0508,0 0.0903,0.0282 0.0452,0.0282 0.0452,0.0564 0,0.0452 -0.0282,0.079 -0.0226,0.0282 -0.0677,0.0677 -0.0452,0.0339 -0.10725,0.096 -0.0621,0.0564 -0.12982,0.1524 -0.13546,0.18627 -0.2032,0.38382 -0.0621,0.19191 -0.0621,0.33867 0,0.14675 0.10725,0.23707 0.11289,0.0847 0.23142,0.0847 0.21449,0 0.37818,-0.096 0.16933,-0.096 0.28786,-0.21449 0.11854,-0.11854 0.19192,-0.21449 0.0734,-0.096 0.10724,-0.096 0.0621,0 0.0621,0.096 z"
         style="font-family:'Reenie Beanie';-inkscape-font-specification:'Reenie Beanie';stroke-width:0.179355"
         id="path4864" />
      <path
         d="m 105.36389,107.18661 q 0,0.12418 -0.0339,0.23706 -0.0339,0.11289 -0.0903,0.19756 -0.0564,0.0847 -0.13547,0.13547 -0.0734,0.0452 -0.16368,0.0452 -0.15805,0 -0.24836,-0.0903 -0.0903,-0.0903 -0.14111,-0.20884 -0.0452,-0.11854 -0.0621,-0.23707 -0.0113,-0.12418 -0.0113,-0.18627 0,-0.1016 0.0282,-0.22577 0.0339,-0.12983 0.0847,-0.23707 0.0564,-0.10724 0.12418,-0.18062 0.0677,-0.0734 0.14111,-0.0734 0.0169,0 0.0508,0.0113 0.0395,0.0113 0.079,0.0339 0.0395,0.0226 0.0677,0.0564 0.0339,0.0339 0.0452,0.079 0.0621,0.006 0.12418,0.0452 0.0621,0.0395 0.0677,0.0621 0.0452,0.14675 0.0564,0.29351 0.0169,0.14675 0.0169,0.24271 z m -0.254,-0.1016 q 0,-0.0847 -0.0169,-0.17498 -0.0169,-0.096 -0.0677,-0.19191 -0.0113,0.006 -0.0282,0.006 -0.0226,0 -0.0395,-0.006 -0.0113,-0.006 -0.0226,-0.006 -0.0677,0 -0.10724,0.0395 -0.0395,0.0339 -0.0621,0.0959 -0.0169,0.0565 -0.0226,0.12418 -0.006,0.0677 -0.006,0.12982 0,0.0621 0.006,0.14111 0.006,0.0734 0.0226,0.14111 0.0226,0.0677 0.0564,0.11854 0.0339,0.0451 0.0903,0.0451 0.0564,0 0.096,-0.0564 0.0395,-0.0621 0.0621,-0.14111 0.0226,-0.079 0.0282,-0.1524 0.0113,-0.079 0.0113,-0.11289 z"
         style="font-family:'Reenie Beanie';-inkscape-font-specification:'Reenie Beanie';stroke-width:0.179355"
         id="path4866" />
      <path
         d="m 107.791,107.46883 q 0,0.0508 -0.0677,0.10724 -0.0677,0.0564 -0.15805,0.10725 -0.0903,0.0452 -0.18626,0.079 -0.0903,0.0339 -0.13547,0.0339 -0.0508,0 -0.11289,-0.0282 -0.0564,-0.0282 -0.11289,-0.0677 -0.0508,-0.0395 -0.0903,-0.0734 -0.0395,-0.0339 -0.0508,-0.0451 -0.0169,0.0169 -0.0508,0.0677 -0.0339,0.0508 -0.0847,0.11289 -0.0451,0.0565 -0.1016,0.1016 -0.0508,0.0452 -0.10724,0.0452 -0.14675,0 -0.254,-0.15805 -0.10724,-0.15804 -0.18062,-0.36124 -0.0677,-0.2032 -0.10725,-0.38947 -0.0339,-0.19191 -0.0339,-0.25964 0,-0.0395 0.0395,-0.0621 0.0451,-0.0282 0.0677,-0.0282 0.079,0 0.10725,0.0564 0.0282,0.0508 0.0282,0.11289 0,0.0508 0.0282,0.18062 0.0339,0.12982 0.079,0.26529 0.0452,0.13547 0.096,0.24271 0.0508,0.1016 0.0903,0.1016 0.0734,0 0.12418,-0.0903 0.0564,-0.096 0.0903,-0.21449 0.0339,-0.12418 0.0508,-0.23142 0.0169,-0.11289 0.0169,-0.14676 0,-0.006 0,-0.0339 0.006,-0.0339 0.0113,-0.0677 0.006,-0.0339 0.006,-0.0621 0.006,-0.0282 0.006,-0.0395 0,-0.0395 -0.0169,-0.0508 -0.0169,-0.0169 -0.0169,-0.0621 0,-0.0339 0.0339,-0.0621 0.0339,-0.0339 0.14675,-0.0339 0.0452,0 0.0677,0.0282 0.0282,0.0226 0.0395,0.0565 0.0113,0.0339 0.0113,0.0677 0.006,0.0282 0.006,0.0395 0,0.006 -0.006,0.079 -0.006,0.0734 -0.0113,0.16369 0,0.0847 -0.006,0.16369 -0.006,0.079 -0.006,0.096 0,0.0169 0.0169,0.0677 0.0169,0.0508 0.0395,0.10724 0.0282,0.0508 0.0621,0.096 0.0339,0.0395 0.0734,0.0395 0.0677,0 0.12418,-0.0169 0.0621,-0.0226 0.11289,-0.0452 0.0564,-0.0282 0.1016,-0.0451 0.0452,-0.0226 0.0847,-0.0226 0.0508,0 0.0903,0.0226 0.0451,0.0226 0.0451,0.0564 z"
         style="font-family:'Reenie Beanie';-inkscape-font-specification:'Reenie Beanie';stroke-width:0.179355"
         id="path4868" />
      <path
         d="m 109.34886,106.68425 q 0,0.0395 -0.0339,0.0677 -0.0339,0.0226 -0.079,0.0395 -0.0452,0.0169 -0.0903,0.0282 -0.0452,0.006 -0.0734,0.006 -0.0847,0 -0.11289,-0.0113 -0.0282,-0.0113 -0.0452,-0.0113 -0.14111,0 -0.22578,0.0226 -0.0847,0.0226 -0.13546,0.0734 -0.0452,0.0508 -0.0621,0.12982 -0.0113,0.0734 -0.0113,0.18063 0,0.18062 0.0113,0.28786 0.0169,0.10725 0.0282,0.17498 0.0169,0.0677 0.0282,0.10724 0.0169,0.0339 0.0169,0.0677 0,0.0452 -0.0508,0.096 -0.0452,0.0508 -0.0847,0.0508 -0.0677,0 -0.12418,-0.11853 -0.0508,-0.12418 -0.0903,-0.28787 -0.0339,-0.16933 -0.0564,-0.33302 -0.0226,-0.16369 -0.0226,-0.24835 0,-0.096 0.0169,-0.18063 0.0169,-0.0903 0.0452,-0.1524 0.0282,-0.0677 0.0621,-0.10724 0.0339,-0.0395 0.0677,-0.0395 0.0282,0 0.0452,0.0226 0.0169,0.0169 0.0282,0.0452 0.0113,0.0226 0.0226,0.0452 0.0169,0.0169 0.0395,0.0169 0.0508,0 0.16369,-0.0508 0.11288,-0.0508 0.27657,-0.0508 0.1524,0 0.22578,0.0113 0.079,0.006 0.1524,0.0339 0.0169,0.006 0.0395,0.0282 0.0282,0.0169 0.0282,0.0564 z"
         style="font-family:'Reenie Beanie';-inkscape-font-specification:'Reenie Beanie';stroke-width:0.179355"
         id="path4870" />
      <path
         d="m 111.07042,107.66074 q 0,0.096 -0.0677,0.16933 -0.0621,0.0677 -0.16369,0.11854 -0.096,0.0451 -0.21449,0.0734 -0.11854,0.0282 -0.22578,0.0451 -0.10724,0.0113 -0.19191,0.0169 -0.079,0 -0.1016,0 -0.12418,0 -0.19191,-0.0395 -0.0677,-0.0395 -0.0677,-0.14111 0,-0.0339 0.006,-0.0564 0.006,-0.0282 0.0452,-0.0282 0.0169,0 0.0564,0.0113 0.0395,0.006 0.0621,0.006 0.0226,0 0.14111,-0.006 0.12418,-0.0113 0.25964,-0.0339 0.14111,-0.0226 0.24836,-0.0621 0.11289,-0.0452 0.11289,-0.11289 0,-0.0113 -0.11854,-0.0677 -0.11288,-0.0621 -0.34431,-0.2032 -0.18062,-0.11289 -0.254,-0.22578 -0.0734,-0.11853 -0.0734,-0.31609 0,-0.12418 0.0508,-0.2032 0.0564,-0.079 0.14675,-0.12418 0.096,-0.0451 0.21449,-0.0621 0.12418,-0.0226 0.25964,-0.0226 0.0113,0 0.0677,0.0113 0.0621,0.0113 0.12982,0.0395 0.0677,0.0226 0.11853,0.0621 0.0565,0.0339 0.0565,0.079 0,0.0113 -0.0226,0.0339 -0.0169,0.0226 -0.0621,0.0847 -0.0169,-0.006 -0.0621,-0.0169 -0.0395,-0.0113 -0.096,-0.0226 -0.0508,-0.0169 -0.10725,-0.0226 -0.0564,-0.0113 -0.0903,-0.0113 -0.14675,0 -0.23707,0.0564 -0.0903,0.0508 -0.0903,0.2032 0,0.0734 0.0564,0.13546 0.0621,0.0621 0.1524,0.11854 0.0903,0.0508 0.19191,0.10724 0.10724,0.0508 0.19755,0.11289 0.0903,0.0621 0.14676,0.13547 0.0621,0.0677 0.0621,0.15804 z"
         style="font-family:'Reenie Beanie';-inkscape-font-specification:'Reenie Beanie';stroke-width:0.179355"
         id="path4872" />
      <path
         d="m 114.90299,107.18661 q 0,0.12418 -0.0339,0.23706 -0.0339,0.11289 -0.0903,0.19756 -0.0564,0.0847 -0.13547,0.13547 -0.0734,0.0452 -0.16369,0.0452 -0.15804,0 -0.24835,-0.0903 -0.0903,-0.0903 -0.14111,-0.20884 -0.0452,-0.11854 -0.0621,-0.23707 -0.0113,-0.12418 -0.0113,-0.18627 0,-0.1016 0.0282,-0.22577 0.0339,-0.12983 0.0847,-0.23707 0.0564,-0.10724 0.12417,-0.18062 0.0677,-0.0734 0.14112,-0.0734 0.0169,0 0.0508,0.0113 0.0395,0.0113 0.079,0.0339 0.0395,0.0226 0.0677,0.0564 0.0339,0.0339 0.0452,0.079 0.0621,0.006 0.12417,0.0452 0.0621,0.0395 0.0677,0.0621 0.0451,0.14675 0.0564,0.29351 0.0169,0.14675 0.0169,0.24271 z m -0.25399,-0.1016 q 0,-0.0847 -0.0169,-0.17498 -0.0169,-0.096 -0.0677,-0.19191 -0.0113,0.006 -0.0282,0.006 -0.0226,0 -0.0395,-0.006 -0.0113,-0.006 -0.0226,-0.006 -0.0677,0 -0.10725,0.0395 -0.0395,0.0339 -0.0621,0.0959 -0.0169,0.0565 -0.0226,0.12418 -0.006,0.0677 -0.006,0.12982 0,0.0621 0.006,0.14111 0.006,0.0734 0.0226,0.14111 0.0226,0.0677 0.0564,0.11854 0.0339,0.0451 0.0903,0.0451 0.0564,0 0.096,-0.0564 0.0395,-0.0621 0.0621,-0.14111 0.0226,-0.079 0.0282,-0.1524 0.0113,-0.079 0.0113,-0.11289 z"
         style="font-family:'Reenie Beanie';-inkscape-font-specification:'Reenie Beanie';stroke-width:0.179355"
         id="path4874" />
      <path
         d="m 117.33011,107.46883 q 0,0.0508 -0.0677,0.10724 -0.0677,0.0564 -0.15805,0.10725 -0.0903,0.0452 -0.18627,0.079 -0.0903,0.0339 -0.13546,0.0339 -0.0508,0 -0.11289,-0.0282 -0.0564,-0.0282 -0.11289,-0.0677 -0.0508,-0.0395 -0.0903,-0.0734 -0.0395,-0.0339 -0.0508,-0.0451 -0.0169,0.0169 -0.0508,0.0677 -0.0339,0.0508 -0.0847,0.11289 -0.0452,0.0565 -0.1016,0.1016 -0.0508,0.0452 -0.10724,0.0452 -0.14676,0 -0.254,-0.15805 -0.10725,-0.15804 -0.18062,-0.36124 -0.0677,-0.2032 -0.10725,-0.38947 -0.0339,-0.19191 -0.0339,-0.25964 0,-0.0395 0.0395,-0.0621 0.0452,-0.0282 0.0677,-0.0282 0.079,0 0.10724,0.0564 0.0282,0.0508 0.0282,0.11289 0,0.0508 0.0282,0.18062 0.0339,0.12982 0.079,0.26529 0.0452,0.13547 0.096,0.24271 0.0508,0.1016 0.0903,0.1016 0.0734,0 0.12418,-0.0903 0.0564,-0.096 0.0903,-0.21449 0.0339,-0.12418 0.0508,-0.23142 0.0169,-0.11289 0.0169,-0.14676 0,-0.006 0,-0.0339 0.006,-0.0339 0.0113,-0.0677 0.006,-0.0339 0.006,-0.0621 0.006,-0.0282 0.006,-0.0395 0,-0.0395 -0.0169,-0.0508 -0.0169,-0.0169 -0.0169,-0.0621 0,-0.0339 0.0339,-0.0621 0.0339,-0.0339 0.14675,-0.0339 0.0452,0 0.0677,0.0282 0.0282,0.0226 0.0395,0.0565 0.0113,0.0339 0.0113,0.0677 0.006,0.0282 0.006,0.0395 0,0.006 -0.006,0.079 -0.006,0.0734 -0.0113,0.16369 0,0.0847 -0.006,0.16369 -0.006,0.079 -0.006,0.096 0,0.0169 0.0169,0.0677 0.0169,0.0508 0.0395,0.10724 0.0282,0.0508 0.0621,0.096 0.0339,0.0395 0.0734,0.0395 0.0677,0 0.12418,-0.0169 0.0621,-0.0226 0.11289,-0.0452 0.0564,-0.0282 0.1016,-0.0451 0.0452,-0.0226 0.0847,-0.0226 0.0508,0 0.0903,0.0226 0.0452,0.0226 0.0452,0.0564 z"
         style="font-family:'Reenie Beanie';-inkscape-font-specification:'Reenie Beanie';stroke-width:0.179355"
         id="path4876" />
      <path
         d="m 85.980867,115.37105 q 0,0.0452 -0.03387,0.0677 -0.03387,0.0226 -0.07902,0.0226 -0.0508,0 -0.107245,-0.096 -0.0508,-0.0959 -0.1016,-0.24271 -0.0508,-0.14675 -0.09595,-0.31609 -0.04516,-0.17497 -0.07902,-0.32173 -0.03387,-0.1524 -0.05644,-0.254 -0.01693,-0.1016 -0.01693,-0.11289 0,-0.0226 -0.02258,-0.11853 -0.01693,-0.096 -0.0508,-0.29916 -0.02822,-0.2032 -0.06773,-0.52493 -0.03387,-0.32738 -0.07338,-0.80716 0,-0.0508 0.01693,-0.12982 0.01693,-0.079 0.07902,-0.079 0.07902,0 0.118533,0.10724 0.04515,0.10725 0.06773,0.26529 0.02822,0.15805 0.03951,0.33303 0.01129,0.16933 0.02822,0.29915 0.02258,0.18062 0.03951,0.32738 0.02258,0.14675 0.03951,0.29351 0.02258,0.14111 0.0508,0.29915 0.03387,0.15805 0.07902,0.34996 l 0.225777,0.93698 z"
         style="font-family:'Reenie Beanie';-inkscape-font-specification:'Reenie Beanie';stroke-width:0.179355"
         id="path4878" />
      <path
         d="m 87.990291,114.94207 q 0.0056,0.0113 0.0056,0.0339 0,0.0339 -0.0508,0.1016 -0.01693,0.0226 -0.07338,0.0734 -0.05644,0.0508 -0.1524,0.1016 -0.09596,0.0508 -0.237066,0.0903 -0.135467,0.0395 -0.321733,0.0395 -0.129822,0 -0.254,-0.0564 -0.124178,-0.0621 -0.220133,-0.17498 -0.09596,-0.11853 -0.158044,-0.28786 -0.06209,-0.17498 -0.06209,-0.4064 0,-0.22014 0.05644,-0.41205 0.05645,-0.19191 0.141111,-0.33866 0.09031,-0.14676 0.197556,-0.23143 0.107244,-0.0847 0.208844,-0.0847 0.09031,0 0.180622,0.0395 0.09596,0.0339 0.169333,0.0903 0.07902,0.0564 0.124178,0.12982 0.04515,0.0677 0.04515,0.14111 0,0.0847 -0.07902,0.17498 -0.07338,0.0903 -0.180622,0.16933 -0.107244,0.0734 -0.214489,0.12418 -0.107244,0.0452 -0.169333,0.0452 -0.03387,0 -0.06209,-0.0282 -0.02258,-0.0339 -0.02258,-0.079 0,-0.079 0.06773,-0.12417 0.07338,-0.0452 0.158044,-0.079 0.08467,-0.0395 0.1524,-0.0903 0.07338,-0.0508 0.07338,-0.14111 0,-0.0113 -0.02822,-0.0564 -0.02822,-0.0452 -0.1524,-0.0452 -0.05644,0 -0.129822,0.0677 -0.07338,0.0621 -0.141111,0.17498 -0.06773,0.10725 -0.112889,0.25965 -0.04516,0.14675 -0.04516,0.32173 0,0.14676 0.0508,0.26529 0.05644,0.11853 0.141111,0.2032 0.08467,0.079 0.197556,0.12418 0.112888,0.0452 0.231422,0.0452 0.08467,0 0.180622,-0.0339 0.1016,-0.0395 0.186266,-0.079 0.09031,-0.0451 0.1524,-0.079 0.06773,-0.0395 0.08467,-0.0395 0.01693,0 0.03387,0.0169 0.02258,0.0169 0.02822,0.0339 z"
         style="font-family:'Reenie Beanie';-inkscape-font-specification:'Reenie Beanie';stroke-width:0.179355"
         id="path4880" />
      <path
         d="m 89.66105,114.78967 q 0,0.096 -0.06773,0.16933 -0.06209,0.0677 -0.163689,0.11854 -0.09595,0.0452 -0.214488,0.0734 -0.118534,0.0282 -0.225778,0.0452 -0.107244,0.0113 -0.191911,0.0169 -0.07902,0 -0.1016,0 -0.124178,0 -0.191911,-0.0395 -0.06773,-0.0395 -0.06773,-0.14111 0,-0.0339 0.0056,-0.0564 0.0056,-0.0282 0.04516,-0.0282 0.01693,0 0.05644,0.0113 0.03951,0.006 0.06209,0.006 0.02258,0 0.141111,-0.006 0.124178,-0.0113 0.259644,-0.0339 0.141111,-0.0226 0.248356,-0.0621 0.112888,-0.0452 0.112888,-0.11289 0,-0.0113 -0.118533,-0.0677 -0.112889,-0.0621 -0.344311,-0.20319 -0.180622,-0.11289 -0.253999,-0.22578 -0.07338,-0.11854 -0.07338,-0.31609 0,-0.12418 0.0508,-0.2032 0.05644,-0.079 0.146755,-0.12418 0.09596,-0.0451 0.214489,-0.0621 0.124178,-0.0226 0.259644,-0.0226 0.01129,0 0.06773,0.0113 0.06209,0.0113 0.129823,0.0395 0.06773,0.0226 0.118533,0.0621 0.05644,0.0339 0.05644,0.079 0,0.0113 -0.02258,0.0339 -0.01693,0.0226 -0.06209,0.0847 -0.01693,-0.006 -0.06209,-0.0169 -0.03951,-0.0113 -0.09596,-0.0226 -0.0508,-0.0169 -0.107244,-0.0226 -0.05644,-0.0113 -0.09031,-0.0113 -0.146756,0 -0.237067,0.0565 -0.09031,0.0508 -0.09031,0.2032 0,0.0734 0.05645,0.13546 0.06209,0.0621 0.1524,0.11854 0.09031,0.0508 0.191911,0.10724 0.107244,0.0508 0.197555,0.11289 0.09031,0.0621 0.146755,0.13547 0.06209,0.0677 0.06209,0.15804 z"
         style="font-family:'Reenie Beanie';-inkscape-font-specification:'Reenie Beanie';stroke-width:0.179355"
         id="path4882" />
      <path
         d="m 93.81536,113.81318 q 0,0.0395 -0.03387,0.0677 -0.03387,0.0226 -0.07902,0.0395 -0.04516,0.0169 -0.09031,0.0282 -0.04516,0.006 -0.07338,0.006 -0.08467,0 -0.112889,-0.0113 -0.02822,-0.0113 -0.04515,-0.0113 -0.141111,0 -0.225778,0.0226 -0.08467,0.0226 -0.135467,0.0734 -0.04515,0.0508 -0.06209,0.12982 -0.01129,0.0734 -0.01129,0.18062 0,0.18063 0.01129,0.28787 0.01693,0.10724 0.02822,0.17498 0.01693,0.0677 0.02822,0.10724 0.01693,0.0339 0.01693,0.0677 0,0.0452 -0.0508,0.096 -0.04516,0.0508 -0.08467,0.0508 -0.06773,0 -0.124178,-0.11853 -0.0508,-0.12418 -0.09031,-0.28787 -0.03387,-0.16933 -0.05644,-0.33302 -0.02258,-0.16369 -0.02258,-0.24836 0,-0.096 0.01693,-0.18062 0.01693,-0.0903 0.04516,-0.1524 0.02822,-0.0677 0.06209,-0.10724 0.03387,-0.0395 0.06773,-0.0395 0.02822,0 0.04515,0.0226 0.01693,0.0169 0.02822,0.0452 0.01129,0.0226 0.02258,0.0452 0.01693,0.0169 0.03951,0.0169 0.0508,0 0.163689,-0.0508 0.112889,-0.0508 0.276578,-0.0508 0.1524,0 0.225777,0.0113 0.07902,0.006 0.1524,0.0339 0.01693,0.006 0.03951,0.0282 0.02822,0.0169 0.02822,0.0564 z"
         style="font-family:'Reenie Beanie';-inkscape-font-specification:'Reenie Beanie';stroke-width:0.179355"
         id="path4884" />
      <path
         d="m 95.83607,114.94207 q 0.0056,0.0113 0.0056,0.0339 0,0.0339 -0.0508,0.1016 -0.01693,0.0226 -0.07338,0.0734 -0.05644,0.0508 -0.152399,0.1016 -0.09596,0.0508 -0.237067,0.0903 -0.135467,0.0395 -0.321733,0.0395 -0.129822,0 -0.254,-0.0564 -0.124178,-0.0621 -0.220133,-0.17498 -0.09595,-0.11853 -0.158044,-0.28786 -0.06209,-0.17498 -0.06209,-0.4064 0,-0.22014 0.05644,-0.41205 0.05644,-0.19191 0.141111,-0.33866 0.09031,-0.14676 0.197556,-0.23143 0.107244,-0.0847 0.208844,-0.0847 0.09031,0 0.180622,0.0395 0.09596,0.0339 0.169333,0.0903 0.07902,0.0564 0.124178,0.12982 0.04516,0.0677 0.04516,0.14111 0,0.0847 -0.07902,0.17498 -0.07338,0.0903 -0.180622,0.16933 -0.107244,0.0734 -0.214489,0.12418 -0.107244,0.0452 -0.169333,0.0452 -0.03387,0 -0.06209,-0.0282 -0.02258,-0.0339 -0.02258,-0.079 0,-0.079 0.06773,-0.12417 0.07338,-0.0452 0.158044,-0.079 0.08467,-0.0395 0.1524,-0.0903 0.07338,-0.0508 0.07338,-0.14111 0,-0.0113 -0.02822,-0.0564 -0.02822,-0.0452 -0.1524,-0.0452 -0.05644,0 -0.129822,0.0677 -0.07338,0.0621 -0.141111,0.17498 -0.06773,0.10725 -0.112889,0.25965 -0.04516,0.14675 -0.04516,0.32173 0,0.14676 0.0508,0.26529 0.05644,0.11853 0.141111,0.2032 0.08467,0.079 0.197556,0.12418 0.112888,0.0452 0.231422,0.0452 0.08467,0 0.180622,-0.0339 0.1016,-0.0395 0.186266,-0.079 0.09031,-0.0451 0.1524,-0.079 0.06773,-0.0395 0.08467,-0.0395 0.01693,0 0.03387,0.0169 0.02258,0.0169 0.02822,0.0339 z"
         style="font-family:'Reenie Beanie';-inkscape-font-specification:'Reenie Beanie';stroke-width:0.179355"
         id="path4886" />
      <path
         d="m 97.930163,114.84047 q 0,0.0339 -0.02258,0.0677 -0.02258,0.0339 -0.05644,0.0621 -0.02822,0.0282 -0.06773,0.0508 -0.03387,0.0169 -0.06209,0.0169 -0.09596,0 -0.248355,-0.0395 -0.146755,-0.0451 -0.237066,-0.13546 -0.09596,-0.096 -0.169334,-0.22578 -0.07338,-0.13547 -0.163688,-0.39511 -0.06209,0.24835 -0.146756,0.49106 -0.07902,0.24272 -0.259644,0.44592 -0.01129,0.0113 -0.03387,0.0113 -0.03951,0 -0.08467,-0.0395 -0.04516,-0.0395 -0.04516,-0.079 0,-0.0395 -0.01129,-0.18062 -0.0056,-0.14676 -0.01693,-0.32173 -0.01129,-0.18063 -0.02258,-0.36125 -0.0056,-0.18626 -0.0056,-0.3048 0,-0.0564 0.0056,-0.14675 0.0056,-0.096 0.03387,-0.16369 0.0056,-0.0113 0.03951,-0.0452 0.03951,-0.0339 0.08467,-0.0339 0.03951,0 0.04515,0.0508 0.0056,0.0508 0.0056,0.11288 v 0.89183 q 0,0.0282 0.0056,0.079 0.01129,0.0508 0.02822,0.0734 0.06209,-0.13547 0.112889,-0.31609 0.05644,-0.18627 0.107244,-0.34996 0.0508,-0.16933 0.1016,-0.28222 0.0508,-0.11853 0.1016,-0.11853 0.05644,0 0.09031,0.0226 0.03387,0.0226 0.05644,0.0903 0.02822,0.16368 0.04515,0.29351 0.01693,0.12417 0.03951,0.22577 0.02822,0.1016 0.07338,0.19192 0.0508,0.0847 0.135466,0.15804 0.07902,0.0734 0.174978,0.10724 0.1016,0.0339 0.174978,0.0339 0.03387,0 0.07338,-0.0113 0.03951,-0.0169 0.05644,-0.0169 0.02258,0 0.03951,0.0395 0.02258,0.0395 0.02258,0.0508 z"
         style="font-family:'Reenie Beanie';-inkscape-font-specification:'Reenie Beanie';stroke-width:0.179355"
         id="path4888" />
      <path
         d="m 99.493668,114.78967 q 0,0.096 -0.06773,0.16933 -0.06209,0.0677 -0.163689,0.11854 -0.09596,0.0452 -0.214489,0.0734 -0.118533,0.0282 -0.225777,0.0452 -0.107245,0.0113 -0.191911,0.0169 -0.07902,0 -0.1016,0 -0.124178,0 -0.191911,-0.0395 -0.06773,-0.0395 -0.06773,-0.14111 0,-0.0339 0.0056,-0.0564 0.0056,-0.0282 0.04516,-0.0282 0.01693,0 0.05644,0.0113 0.03951,0.006 0.06209,0.006 0.02258,0 0.141111,-0.006 0.124177,-0.0113 0.259644,-0.0339 0.141111,-0.0226 0.248355,-0.0621 0.112889,-0.0452 0.112889,-0.11289 0,-0.0113 -0.118533,-0.0677 -0.112889,-0.0621 -0.344311,-0.20319 -0.180622,-0.11289 -0.254,-0.22578 -0.07338,-0.11854 -0.07338,-0.31609 0,-0.12418 0.0508,-0.2032 0.05644,-0.079 0.146755,-0.12418 0.09596,-0.0451 0.214489,-0.0621 0.124177,-0.0226 0.259644,-0.0226 0.01129,0 0.06773,0.0113 0.06209,0.0113 0.129822,0.0395 0.06773,0.0226 0.118534,0.0621 0.05644,0.0339 0.05644,0.079 0,0.0113 -0.02258,0.0339 -0.01693,0.0226 -0.06209,0.0847 -0.01693,-0.006 -0.06209,-0.0169 -0.03951,-0.0113 -0.09596,-0.0226 -0.0508,-0.0169 -0.107244,-0.0226 -0.05644,-0.0113 -0.09031,-0.0113 -0.146756,0 -0.237067,0.0565 -0.09031,0.0508 -0.09031,0.2032 0,0.0734 0.05644,0.13546 0.06209,0.0621 0.152399,0.11854 0.09031,0.0508 0.191911,0.10724 0.107245,0.0508 0.197556,0.11289 0.09031,0.0621 0.146755,0.13547 0.06209,0.0677 0.06209,0.15804 z"
         style="font-family:'Reenie Beanie';-inkscape-font-specification:'Reenie Beanie';stroke-width:0.179355"
         id="path4890" />
      <path
         d="m 101.54825,114.94207 q 0.006,0.0113 0.006,0.0339 0,0.0339 -0.0508,0.1016 -0.0169,0.0226 -0.0734,0.0734 -0.0564,0.0508 -0.1524,0.1016 -0.096,0.0508 -0.23707,0.0903 -0.13547,0.0395 -0.32173,0.0395 -0.12983,0 -0.254,-0.0564 -0.12418,-0.0621 -0.22014,-0.17498 -0.096,-0.11853 -0.15804,-0.28786 -0.0621,-0.17498 -0.0621,-0.4064 0,-0.22014 0.0564,-0.41205 0.0564,-0.19191 0.14112,-0.33866 0.0903,-0.14676 0.19755,-0.23143 0.10725,-0.0847 0.20885,-0.0847 0.0903,0 0.18062,0.0395 0.096,0.0339 0.16933,0.0903 0.079,0.0564 0.12418,0.12982 0.0452,0.0677 0.0452,0.14111 0,0.0847 -0.079,0.17498 -0.0734,0.0903 -0.18062,0.16933 -0.10725,0.0734 -0.21449,0.12418 -0.10724,0.0452 -0.16933,0.0452 -0.0339,0 -0.0621,-0.0282 -0.0226,-0.0339 -0.0226,-0.079 0,-0.079 0.0677,-0.12417 0.0734,-0.0452 0.15805,-0.079 0.0847,-0.0395 0.1524,-0.0903 0.0734,-0.0508 0.0734,-0.14111 0,-0.0113 -0.0282,-0.0564 -0.0282,-0.0452 -0.1524,-0.0452 -0.0564,0 -0.12982,0.0677 -0.0734,0.0621 -0.14111,0.17498 -0.0677,0.10725 -0.11289,0.25965 -0.0452,0.14675 -0.0452,0.32173 0,0.14676 0.0508,0.26529 0.0564,0.11853 0.14111,0.2032 0.0847,0.079 0.19755,0.12418 0.11289,0.0452 0.23142,0.0452 0.0847,0 0.18063,-0.0339 0.1016,-0.0395 0.18626,-0.079 0.0903,-0.0451 0.1524,-0.079 0.0677,-0.0395 0.0847,-0.0395 0.0169,0 0.0339,0.0169 0.0226,0.0169 0.0282,0.0339 z"
         style="font-family:'Reenie Beanie';-inkscape-font-specification:'Reenie Beanie';stroke-width:0.179355"
         id="path4892" />
      <path
         d="m 102.28203,112.93829 q 0,0.0113 -0.0395,0.0452 -0.0395,0.0339 -0.096,0.0734 -0.0508,0.0339 -0.10725,0.0621 -0.0564,0.0282 -0.0903,0.0282 -0.0226,0 -0.0621,0 -0.0339,-0.006 -0.0734,-0.0226 -0.0339,-0.0169 -0.0621,-0.0452 -0.0282,-0.0339 -0.0282,-0.0847 0,-0.079 0.0564,-0.14676 0.0564,-0.0734 0.14675,-0.0734 0.0169,0 0.0734,0.0169 0.0621,0.0113 0.12418,0.0339 0.0621,0.0226 0.10724,0.0508 0.0508,0.0282 0.0508,0.0621 z m 0.18627,2.11102 q 0,0.0395 -0.0621,0.0677 -0.0564,0.0282 -0.0847,0.0282 -0.0564,0 -0.1016,-0.0734 -0.0451,-0.0734 -0.079,-0.16933 -0.0339,-0.096 -0.0564,-0.18062 -0.0226,-0.0903 -0.0339,-0.12418 -0.0169,-0.0564 -0.0452,-0.13547 -0.0282,-0.079 -0.0564,-0.1524 -0.0226,-0.0734 -0.0395,-0.12982 -0.0169,-0.0564 -0.0169,-0.0621 0,-0.079 0.0282,-0.14675 0.0339,-0.0677 0.079,-0.0677 0.0508,0 0.10724,0.079 0.0564,0.079 0.10725,0.2032 0.0564,0.11854 0.1016,0.26529 0.0452,0.14111 0.079,0.27094 0.0339,0.12417 0.0508,0.22013 0.0226,0.0903 0.0226,0.10724 z"
         style="font-family:'Reenie Beanie';-inkscape-font-specification:'Reenie Beanie';stroke-width:0.179355"
         id="path4894" />
      <path
         d="m 104.22372,115.03802 q 0,0.0621 -0.0452,0.0847 -0.0452,0.0226 -0.0452,0.0621 -0.006,-0.006 0.0226,0.0621 0.0282,0.0677 0.0508,0.14111 0.0395,0.1524 0.0677,0.26529 0.0339,0.11289 0.0508,0.20884 0.0226,0.096 0.0339,0.19191 0.0113,0.096 0.0113,0.21449 0,0.11854 -0.0395,0.24271 -0.0395,0.12418 -0.11289,0.22014 -0.0734,0.096 -0.18062,0.15804 -0.10725,0.0621 -0.24272,0.0621 -0.20884,0 -0.33302,-0.0847 -0.11853,-0.0847 -0.18062,-0.19191 -0.0621,-0.10724 -0.079,-0.21449 -0.0169,-0.1016 -0.0169,-0.13546 0,-0.20885 0.10724,-0.41769 0.10724,-0.20885 0.23707,-0.37818 0.12982,-0.16933 0.23706,-0.28222 0.10725,-0.11289 0.10725,-0.12982 l -0.0621,-0.18627 q -0.0564,0.0677 -0.1016,0.1524 -0.0395,0.079 -0.0903,0.1524 -0.0452,0.0677 -0.11289,0.11853 -0.0621,0.0452 -0.15805,0.0452 -0.1016,0 -0.2032,-0.0621 -0.1016,-0.0621 -0.18062,-0.18627 -0.079,-0.12417 -0.12982,-0.29915 -0.0452,-0.17498 -0.0452,-0.4064 0,-0.12982 0.0395,-0.32173 0.0395,-0.19756 0.12417,-0.37818 0.0847,-0.18062 0.20885,-0.3048 0.12982,-0.12982 0.29915,-0.12982 0.096,0 0.17498,0.0339 0.0847,0.0339 0.0847,0.0847 0,0.0451 -0.0169,0.0734 -0.0169,0.0282 -0.0452,0.0564 -0.0169,-0.0113 -0.0395,-0.0226 -0.0169,-0.0113 -0.0508,-0.0113 -0.12418,0 -0.22578,0.11289 -0.096,0.10725 -0.16369,0.27094 -0.0677,0.15804 -0.10724,0.33302 -0.0339,0.17498 -0.0339,0.3048 0,0.28786 0.096,0.44026 0.096,0.14676 0.2032,0.14676 0.0508,0 0.10724,-0.0734 0.0621,-0.079 0.11289,-0.16933 0.0564,-0.096 0.096,-0.18062 0.0395,-0.0847 0.0452,-0.1016 0.0113,-0.0564 0.0113,-0.12982 0,-0.0621 -0.006,-0.13547 0,-0.079 0,-0.15805 0,-0.14675 0.0226,-0.24271 0.0226,-0.1016 0.11289,-0.1016 0.0903,0 0.12982,0.0565 0.0395,0.0508 0.0395,0.12418 0,0.0508 -0.006,0.12417 0,0.0677 0,0.13547 0,0.0621 -0.006,0.11289 0,0.0452 0,0.0564 0,0.0339 0.006,0.1016 0.0113,0.0621 0.0169,0.12982 0.0113,0.0621 0.0169,0.11854 0.0113,0.0508 0.0169,0.0677 0.006,0.0169 0.0169,0.0508 0.0113,0.0339 0.0226,0.0508 0.006,-0.0113 0.0226,-0.0226 0.0169,-0.0169 0.0282,-0.0282 0.0282,0.0169 0.0508,0.0677 0.0282,0.0452 0.0282,0.0508 z m -0.19191,0.71685 q -0.0226,-0.0903 -0.0508,-0.18062 -0.0282,-0.0903 -0.0564,-0.18627 -0.096,0.11853 -0.18627,0.22578 -0.0847,0.11289 -0.15804,0.22013 -0.0677,0.10725 -0.11289,0.22013 -0.0395,0.11854 -0.0395,0.24836 0,0.17498 0.096,0.28787 0.1016,0.11288 0.22013,0.11288 0.12983,0 0.24272,-0.096 0.11853,-0.096 0.11853,-0.27658 0,-0.11853 -0.006,-0.19755 -0.006,-0.079 -0.0169,-0.14111 -0.006,-0.0564 -0.0226,-0.11289 -0.0113,-0.0508 -0.0282,-0.12418 z"
         style="font-family:'Reenie Beanie';-inkscape-font-specification:'Reenie Beanie';stroke-width:0.179355"
         id="path4896" />
      <path
         d="m 106.38554,114.84047 q 0,0.0339 -0.0226,0.0677 -0.0226,0.0339 -0.0564,0.0621 -0.0282,0.0282 -0.0677,0.0508 -0.0339,0.0169 -0.0621,0.0169 -0.096,0 -0.24836,-0.0395 -0.14675,-0.0451 -0.23707,-0.13546 -0.096,-0.096 -0.16933,-0.22578 -0.0734,-0.13547 -0.16369,-0.39511 -0.0621,0.24835 -0.14675,0.49106 -0.079,0.24272 -0.25965,0.44592 -0.0113,0.0113 -0.0339,0.0113 -0.0395,0 -0.0847,-0.0395 -0.0452,-0.0395 -0.0452,-0.079 0,-0.0395 -0.0113,-0.18062 -0.006,-0.14676 -0.0169,-0.32173 -0.0113,-0.18063 -0.0226,-0.36125 -0.006,-0.18626 -0.006,-0.3048 0,-0.0564 0.006,-0.14675 0.006,-0.096 0.0339,-0.16369 0.006,-0.0113 0.0395,-0.0452 0.0395,-0.0339 0.0847,-0.0339 0.0395,0 0.0452,0.0508 0.006,0.0508 0.006,0.11288 v 0.89183 q 0,0.0282 0.006,0.079 0.0113,0.0508 0.0282,0.0734 0.0621,-0.13547 0.11289,-0.31609 0.0564,-0.18627 0.10725,-0.34996 0.0508,-0.16933 0.1016,-0.28222 0.0508,-0.11853 0.1016,-0.11853 0.0564,0 0.0903,0.0226 0.0339,0.0226 0.0564,0.0903 0.0282,0.16368 0.0452,0.29351 0.0169,0.12417 0.0395,0.22577 0.0282,0.1016 0.0734,0.19192 0.0508,0.0847 0.13546,0.15804 0.079,0.0734 0.17498,0.10724 0.1016,0.0339 0.17498,0.0339 0.0339,0 0.0734,-0.0113 0.0395,-0.0169 0.0564,-0.0169 0.0226,0 0.0395,0.0395 0.0226,0.0395 0.0226,0.0508 z"
         style="font-family:'Reenie Beanie';-inkscape-font-specification:'Reenie Beanie';stroke-width:0.179355"
         id="path4898" />
      <path
         d="m 108.2482,114.94207 q 0.006,0.0113 0.006,0.0339 0,0.0339 -0.0508,0.1016 -0.0169,0.0226 -0.0734,0.0734 -0.0564,0.0508 -0.1524,0.1016 -0.096,0.0508 -0.23707,0.0903 -0.13546,0.0395 -0.32173,0.0395 -0.12982,0 -0.254,-0.0564 -0.12418,-0.0621 -0.22013,-0.17498 -0.096,-0.11853 -0.15805,-0.28786 -0.0621,-0.17498 -0.0621,-0.4064 0,-0.22014 0.0564,-0.41205 0.0564,-0.19191 0.14111,-0.33866 0.0903,-0.14676 0.19755,-0.23143 0.10725,-0.0847 0.20885,-0.0847 0.0903,0 0.18062,0.0395 0.096,0.0339 0.16933,0.0903 0.079,0.0564 0.12418,0.12982 0.0452,0.0677 0.0452,0.14111 0,0.0847 -0.079,0.17498 -0.0734,0.0903 -0.18062,0.16933 -0.10724,0.0734 -0.21449,0.12418 -0.10724,0.0452 -0.16933,0.0452 -0.0339,0 -0.0621,-0.0282 -0.0226,-0.0339 -0.0226,-0.079 0,-0.079 0.0677,-0.12417 0.0734,-0.0452 0.15804,-0.079 0.0847,-0.0395 0.1524,-0.0903 0.0734,-0.0508 0.0734,-0.14111 0,-0.0113 -0.0282,-0.0564 -0.0282,-0.0452 -0.1524,-0.0452 -0.0564,0 -0.12983,0.0677 -0.0734,0.0621 -0.14111,0.17498 -0.0677,0.10725 -0.11288,0.25965 -0.0452,0.14675 -0.0452,0.32173 0,0.14676 0.0508,0.26529 0.0564,0.11853 0.14111,0.2032 0.0847,0.079 0.19756,0.12418 0.11288,0.0452 0.23142,0.0452 0.0847,0 0.18062,-0.0339 0.1016,-0.0395 0.18627,-0.079 0.0903,-0.0451 0.1524,-0.079 0.0677,-0.0395 0.0847,-0.0395 0.0169,0 0.0339,0.0169 0.0226,0.0169 0.0282,0.0339 z"
         style="font-family:'Reenie Beanie';-inkscape-font-specification:'Reenie Beanie';stroke-width:0.179355"
         id="path4900" />
      <path
         d="m 111.15509,115.00416 q 0,0.0452 -0.0282,0.079 -0.0282,0.0339 -0.0677,0.0564 -0.0395,0.0169 -0.0847,0.0282 -0.0395,0.0113 -0.0677,0.0113 -0.11854,0 -0.2032,-0.12418 -0.0847,-0.12982 -0.14111,-0.28222 -0.0565,-0.15805 -0.0847,-0.29351 -0.0226,-0.13547 -0.0226,-0.14676 -0.0339,0.0621 -0.0734,0.20884 -0.0339,0.14676 -0.0847,0.29916 -0.0508,0.14675 -0.12982,0.26529 -0.0734,0.11289 -0.19192,0.11289 -0.0564,0 -0.10724,-0.0677 -0.0508,-0.0677 -0.096,-0.17497 -0.0451,-0.10725 -0.0903,-0.24272 -0.0395,-0.13546 -0.0847,-0.26528 -0.0395,-0.12983 -0.079,-0.24271 -0.0395,-0.11854 -0.079,-0.18627 -0.0339,0.0847 -0.0621,0.23142 -0.0226,0.14676 -0.0395,0.31045 -0.0169,0.15804 -0.0282,0.31608 -0.0113,0.15805 -0.0113,0.27658 0,0.079 -0.0451,0.11289 -0.0395,0.0339 -0.0847,0.0339 -0.0621,0 -0.12418,-0.079 -0.0621,-0.0847 -0.12418,-0.21448 -0.0621,-0.12983 -0.11853,-0.29352 -0.0508,-0.16368 -0.096,-0.32737 -0.0395,-0.16369 -0.0621,-0.31045 -0.0226,-0.1524 -0.0226,-0.254 0,-0.0734 0.006,-0.13546 0.006,-0.0508 0.006,-0.096 0.006,-0.0451 0.006,-0.0508 0,-0.0169 -0.0113,-0.0226 -0.006,-0.006 -0.006,-0.0282 0,-0.0169 0.0395,-0.0508 0.0452,-0.0395 0.0903,-0.0395 0.079,0 0.1016,0.0339 0.0282,0.0339 0.0282,0.079 0,0.0169 -0.006,0.0508 0,0.0339 0,0.1524 0,0.079 0.0282,0.23707 0.0282,0.15804 0.0677,0.32173 0.0395,0.16369 0.079,0.3048 0.0452,0.13546 0.0734,0.16933 0.0113,-0.0226 0.0113,-0.0508 0.006,-0.0339 0.0113,-0.0508 l 0.0621,-0.46284 q 0.0226,-0.17498 0.0903,-0.36689 0.0734,-0.19756 0.1524,-0.3048 0.0282,-0.0452 0.0621,-0.0452 0.0339,0 0.0621,0.0508 0.0959,0.15805 0.14111,0.31609 0.0508,0.1524 0.0847,0.3048 0.0395,0.14676 0.0847,0.29916 0.0508,0.14675 0.1524,0.29915 0.0452,-0.0734 0.11289,-0.23706 0.0677,-0.16934 0.13547,-0.33867 0.0734,-0.16933 0.13547,-0.29351 0.0621,-0.12982 0.096,-0.12982 0.0169,0 0.0564,0.006 0.0395,0.006 0.0564,0.006 0.0508,0 0.0847,0.11853 0.0339,0.11289 0.0564,0.27093 0.0282,0.1524 0.0508,0.31045 0.0282,0.1524 0.0621,0.23142 0.0226,0.0564 0.0677,0.10724 0.0452,0.0508 0.0903,0.096 0.0565,0.0508 0.11289,0.1016 z"
         style="font-family:'Reenie Beanie';-inkscape-font-specification:'Reenie Beanie';stroke-width:0.179355"
         id="path4902" />
      <path
         d="m 113.1758,114.94207 q 0.006,0.0113 0.006,0.0339 0,0.0339 -0.0508,0.1016 -0.0169,0.0226 -0.0734,0.0734 -0.0564,0.0508 -0.1524,0.1016 -0.096,0.0508 -0.23706,0.0903 -0.13547,0.0395 -0.32174,0.0395 -0.12982,0 -0.254,-0.0564 -0.12418,-0.0621 -0.22013,-0.17498 -0.096,-0.11853 -0.15805,-0.28786 -0.0621,-0.17498 -0.0621,-0.4064 0,-0.22014 0.0564,-0.41205 0.0564,-0.19191 0.14111,-0.33866 0.0903,-0.14676 0.19756,-0.23143 0.10724,-0.0847 0.20884,-0.0847 0.0903,0 0.18062,0.0395 0.096,0.0339 0.16934,0.0903 0.079,0.0564 0.12417,0.12982 0.0452,0.0677 0.0452,0.14111 0,0.0847 -0.079,0.17498 -0.0734,0.0903 -0.18062,0.16933 -0.10725,0.0734 -0.21449,0.12418 -0.10725,0.0452 -0.16934,0.0452 -0.0339,0 -0.0621,-0.0282 -0.0226,-0.0339 -0.0226,-0.079 0,-0.079 0.0677,-0.12417 0.0734,-0.0452 0.15804,-0.079 0.0847,-0.0395 0.1524,-0.0903 0.0734,-0.0508 0.0734,-0.14111 0,-0.0113 -0.0282,-0.0564 -0.0282,-0.0452 -0.1524,-0.0452 -0.0564,0 -0.12982,0.0677 -0.0734,0.0621 -0.14111,0.17498 -0.0677,0.10725 -0.11289,0.25965 -0.0452,0.14675 -0.0452,0.32173 0,0.14676 0.0508,0.26529 0.0564,0.11853 0.14111,0.2032 0.0847,0.079 0.19756,0.12418 0.11289,0.0452 0.23142,0.0452 0.0847,0 0.18062,-0.0339 0.1016,-0.0395 0.18627,-0.079 0.0903,-0.0451 0.1524,-0.079 0.0677,-0.0395 0.0847,-0.0395 0.0169,0 0.0339,0.0169 0.0226,0.0169 0.0282,0.0339 z"
         style="font-family:'Reenie Beanie';-inkscape-font-specification:'Reenie Beanie';stroke-width:0.179355"
         id="path4904" />
      <path
         d="m 115.2699,114.84047 q 0,0.0339 -0.0226,0.0677 -0.0226,0.0339 -0.0564,0.0621 -0.0282,0.0282 -0.0677,0.0508 -0.0339,0.0169 -0.0621,0.0169 -0.0959,0 -0.24835,-0.0395 -0.14676,-0.0451 -0.23707,-0.13546 -0.096,-0.096 -0.16933,-0.22578 -0.0734,-0.13547 -0.16369,-0.39511 -0.0621,0.24835 -0.14676,0.49106 -0.079,0.24272 -0.25964,0.44592 -0.0113,0.0113 -0.0339,0.0113 -0.0395,0 -0.0847,-0.0395 -0.0451,-0.0395 -0.0451,-0.079 0,-0.0395 -0.0113,-0.18062 -0.006,-0.14676 -0.0169,-0.32173 -0.0113,-0.18063 -0.0226,-0.36125 -0.006,-0.18626 -0.006,-0.3048 0,-0.0564 0.006,-0.14675 0.006,-0.096 0.0339,-0.16369 0.006,-0.0113 0.0395,-0.0452 0.0395,-0.0339 0.0847,-0.0339 0.0395,0 0.0452,0.0508 0.006,0.0508 0.006,0.11288 v 0.89183 q 0,0.0282 0.006,0.079 0.0113,0.0508 0.0282,0.0734 0.0621,-0.13547 0.11289,-0.31609 0.0564,-0.18627 0.10724,-0.34996 0.0508,-0.16933 0.1016,-0.28222 0.0508,-0.11853 0.1016,-0.11853 0.0564,0 0.0903,0.0226 0.0339,0.0226 0.0565,0.0903 0.0282,0.16368 0.0451,0.29351 0.0169,0.12417 0.0395,0.22577 0.0282,0.1016 0.0734,0.19192 0.0508,0.0847 0.13547,0.15804 0.079,0.0734 0.17498,0.10724 0.1016,0.0339 0.17497,0.0339 0.0339,0 0.0734,-0.0113 0.0395,-0.0169 0.0564,-0.0169 0.0226,0 0.0395,0.0395 0.0226,0.0395 0.0226,0.0508 z"
         style="font-family:'Reenie Beanie';-inkscape-font-specification:'Reenie Beanie';stroke-width:0.179355"
         id="path4906" />
      <path
         d="m 117.05918,112.98345 q -0.0734,0.0847 -0.20884,0.16933 -0.13547,0.079 -0.27094,0.14676 -0.13546,0.0677 -0.23706,0.11853 -0.1016,0.0452 -0.1016,0.0621 0,0.0169 0.0226,0.1016 0.0226,0.0847 0.0508,0.2032 0.0339,0.11289 0.0677,0.23707 0.0339,0.12417 0.0564,0.22013 0.0113,0.0564 0.0282,0.14675 0.0169,0.0903 0.0282,0.18063 0.0169,0.0903 0.0282,0.16368 0.0113,0.0677 0.0113,0.0734 0,0.0847 -0.0282,0.17498 -0.0282,0.0903 -0.0903,0.0903 -0.0339,0 -0.0621,-0.0282 -0.0282,-0.0282 -0.0508,-0.0621 -0.0226,-0.0395 -0.0339,-0.0734 -0.0113,-0.0339 -0.0113,-0.0508 0,-0.0113 0,-0.0339 0.006,-0.0226 0.006,-0.0508 0,-0.10725 -0.0339,-0.31045 -0.0113,-0.0621 -0.0452,-0.19191 -0.0339,-0.12982 -0.0677,-0.26529 -0.0395,-0.15804 -0.0903,-0.34431 -0.0226,-0.079 -0.0282,-0.079 -0.0395,0 -0.13547,0.0508 -0.0903,0.0452 -0.20885,0.11853 -0.11853,0.0677 -0.24835,0.1524 -0.12982,0.079 -0.24271,0.1524 -0.11289,0.0677 -0.19191,0.11854 -0.0847,0.0451 -0.1016,0.0451 -0.0734,0 -0.11854,-0.0508 -0.0452,-0.0508 -0.0452,-0.11289 0,-0.0339 0.096,-0.096 0.0903,-0.0677 0.23143,-0.14676 0.13546,-0.079 0.29915,-0.16369 0.15805,-0.0847 0.29351,-0.1524 0.14111,-0.0677 0.23142,-0.11289 0.096,-0.0452 0.096,-0.0452 -0.0508,-0.25965 -0.0847,-0.46285 -0.0282,-0.17497 -0.0564,-0.32173 -0.0226,-0.14675 -0.0226,-0.15804 0,-0.0734 0.0282,-0.10725 0.0339,-0.0395 0.0734,-0.0395 0.0621,0 0.079,0.0847 0.0621,0.3048 0.11289,0.54186 0.0564,0.23707 0.10725,0.38383 0.0508,-0.0113 0.17497,-0.0621 0.12418,-0.0564 0.25965,-0.11854 0.13546,-0.0621 0.24271,-0.10724 0.11289,-0.0508 0.12982,-0.0508 0.0339,0 0.0395,0.0226 0.0113,0.0226 0.0226,0.0395 z"
         style="font-family:'Reenie Beanie';-inkscape-font-specification:'Reenie Beanie';stroke-width:0.179355"
         id="path4908" />
      <path
         d="m 118.63398,114.78967 q 0,0.096 -0.0677,0.16933 -0.0621,0.0677 -0.16369,0.11854 -0.096,0.0452 -0.21449,0.0734 -0.11853,0.0282 -0.22578,0.0452 -0.10724,0.0113 -0.19191,0.0169 -0.079,0 -0.1016,0 -0.12418,0 -0.19191,-0.0395 -0.0677,-0.0395 -0.0677,-0.14111 0,-0.0339 0.006,-0.0564 0.006,-0.0282 0.0452,-0.0282 0.0169,0 0.0564,0.0113 0.0395,0.006 0.0621,0.006 0.0226,0 0.14111,-0.006 0.12418,-0.0113 0.25964,-0.0339 0.14112,-0.0226 0.24836,-0.0621 0.11289,-0.0452 0.11289,-0.11289 0,-0.0113 -0.11853,-0.0677 -0.11289,-0.0621 -0.34432,-0.20319 -0.18062,-0.11289 -0.254,-0.22578 -0.0734,-0.11854 -0.0734,-0.31609 0,-0.12418 0.0508,-0.2032 0.0564,-0.079 0.14675,-0.12418 0.096,-0.0451 0.21449,-0.0621 0.12418,-0.0226 0.25965,-0.0226 0.0113,0 0.0677,0.0113 0.0621,0.0113 0.12982,0.0395 0.0677,0.0226 0.11853,0.0621 0.0564,0.0339 0.0564,0.079 0,0.0113 -0.0226,0.0339 -0.0169,0.0226 -0.0621,0.0847 -0.0169,-0.006 -0.0621,-0.0169 -0.0395,-0.0113 -0.096,-0.0226 -0.0508,-0.0169 -0.10725,-0.0226 -0.0564,-0.0113 -0.0903,-0.0113 -0.14675,0 -0.23706,0.0565 -0.0903,0.0508 -0.0903,0.2032 0,0.0734 0.0564,0.13546 0.0621,0.0621 0.1524,0.11854 0.0903,0.0508 0.19191,0.10724 0.10724,0.0508 0.19756,0.11289 0.0903,0.0621 0.14675,0.13547 0.0621,0.0677 0.0621,0.15804 z"
         style="font-family:'Reenie Beanie';-inkscape-font-specification:'Reenie Beanie';stroke-width:0.179355"
         id="path4910" />
    </g>
    <path
       style="fill:none;fill-opacity:0.990256;stroke:#000000;stroke-width:0.3;stroke-linecap:square;stroke-linejoin:round;stroke-dasharray:none"
       d="m 96.429109,115.67885 c -11.398881,-0.0333 -7.312998,11.3628 -5.058292,8.79291 1.569636,-1.78905 -3.615334,-4.82635 -4.931166,-3.3554 -1.21219,1.3551 -0.450829,6.33008 -0.575156,8.09497"
       id="path464" />
    <path
       style="fill:none;fill-opacity:0.990256;stroke:#000000;stroke-width:0.3;stroke-linecap:square;stroke-linejoin:round;stroke-dasharray:none"
       d="m 86.706864,127.57232 c -1.077948,2.15154 -0.64625,2.30804 -1.545026,-0.24193"
       id="path531" />
  </g>
</svg>
